<mxfile host="app.diagrams.net" agent="Mozilla/5.0 (Windows NT 10.0; Win64; x64) AppleWebKit/537.36 (KHTML, like Gecko) Chrome/132.0.0.0 Safari/537.36" version="26.0.8" pages="2">
  <diagram name="Arquitectura V1" id="f47K9OkZjOzmM8VL_JPL">
    <mxGraphModel dx="1434" dy="752" grid="1" gridSize="10" guides="1" tooltips="1" connect="1" arrows="1" fold="1" page="1" pageScale="1" pageWidth="827" pageHeight="1169" math="0" shadow="0">
      <root>
        <mxCell id="0" />
        <mxCell id="1" parent="0" />
        <object placeholders="1" c4Name="Microservices " c4Type="ContainerScopeBoundary" c4Application="Back End" label="&lt;font style=&quot;font-size: 16px&quot;&gt;&lt;b&gt;&lt;div style=&quot;text-align: left&quot;&gt;%c4Name%&lt;/div&gt;&lt;/b&gt;&lt;/font&gt;&lt;div style=&quot;text-align: left&quot;&gt;[%c4Application%]&lt;/div&gt;" id="nO3HiCi1PGXCBBRZYHxR-1">
          <mxCell style="rounded=1;fontSize=11;whiteSpace=wrap;html=1;dashed=1;arcSize=20;fillColor=#dae8fc;strokeColor=#6c8ebf;labelBackgroundColor=none;align=left;verticalAlign=bottom;labelBorderColor=none;spacingTop=0;spacing=10;dashPattern=8 4;metaEdit=1;rotatable=0;perimeter=rectanglePerimeter;noLabel=0;labelPadding=0;allowArrows=0;connectable=0;expand=0;recursiveResize=0;editable=1;pointerEvents=0;absoluteArcSize=1;points=[[0.25,0,0],[0.5,0,0],[0.75,0,0],[1,0.25,0],[1,0.5,0],[1,0.75,0],[0.75,1,0],[0.5,1,0],[0.25,1,0],[0,0.75,0],[0,0.5,0],[0,0.25,0]];" parent="1" vertex="1">
            <mxGeometry x="60" y="130" width="500" height="800" as="geometry" />
          </mxCell>
        </object>
        <mxCell id="nO3HiCi1PGXCBBRZYHxR-17" style="rounded=0;orthogonalLoop=1;jettySize=auto;html=1;entryX=0.824;entryY=0.884;entryDx=0;entryDy=0;entryPerimeter=0;exitX=0.5;exitY=0;exitDx=0;exitDy=0;exitPerimeter=0;" parent="1" source="nO3HiCi1PGXCBBRZYHxR-4" target="nO3HiCi1PGXCBBRZYHxR-2" edge="1">
          <mxGeometry relative="1" as="geometry" />
        </mxCell>
        <object placeholders="1" c4Name="BootCamp 58" c4Type="SystemScopeBoundary" c4Application="NTT DATA" label="&lt;font style=&quot;font-size: 16px&quot;&gt;&lt;b&gt;&lt;div style=&quot;text-align: left&quot;&gt;%c4Name%&lt;/div&gt;&lt;/b&gt;&lt;/font&gt;&lt;div style=&quot;text-align: left&quot;&gt;[%c4Application%]&lt;/div&gt;" id="nO3HiCi1PGXCBBRZYHxR-5">
          <mxCell style="rounded=1;fontSize=11;whiteSpace=wrap;html=1;dashed=1;arcSize=20;fillColor=none;strokeColor=#666666;fontColor=#333333;labelBackgroundColor=none;align=left;verticalAlign=bottom;labelBorderColor=none;spacingTop=0;spacing=10;dashPattern=8 4;metaEdit=1;rotatable=0;perimeter=rectanglePerimeter;noLabel=0;labelPadding=0;allowArrows=0;connectable=0;expand=0;recursiveResize=0;editable=1;pointerEvents=0;absoluteArcSize=1;points=[[0.25,0,0],[0.5,0,0],[0.75,0,0],[1,0.25,0],[1,0.5,0],[1,0.75,0],[0.75,1,0],[0.5,1,0],[0.25,1,0],[0,0.75,0],[0,0.5,0],[0,0.25,0]];" parent="1" vertex="1">
            <mxGeometry x="40" y="110" width="760" height="890" as="geometry" />
          </mxCell>
        </object>
        <object placeholders="1" c4Name="Data Base" c4Type="ContainerScopeBoundary" c4Application="MongoDB" label="&lt;font style=&quot;font-size: 16px&quot;&gt;&lt;b&gt;&lt;div style=&quot;text-align: left&quot;&gt;%c4Name%&lt;/div&gt;&lt;/b&gt;&lt;/font&gt;&lt;div style=&quot;text-align: left&quot;&gt;[%c4Application%]&lt;/div&gt;" id="nO3HiCi1PGXCBBRZYHxR-6">
          <mxCell style="rounded=1;fontSize=11;whiteSpace=wrap;html=1;dashed=1;arcSize=20;fillColor=#d5e8d4;strokeColor=#82b366;labelBackgroundColor=none;align=left;verticalAlign=bottom;labelBorderColor=none;spacingTop=0;spacing=10;dashPattern=8 4;metaEdit=1;rotatable=0;perimeter=rectanglePerimeter;noLabel=0;labelPadding=0;allowArrows=0;connectable=0;expand=0;recursiveResize=0;editable=1;pointerEvents=0;absoluteArcSize=1;points=[[0.25,0,0],[0.5,0,0],[0.75,0,0],[1,0.25,0],[1,0.5,0],[1,0.75,0],[0.75,1,0],[0.5,1,0],[0.25,1,0],[0,0.75,0],[0,0.5,0],[0,0.25,0]];" parent="1" vertex="1">
            <mxGeometry x="580" y="130" width="200" height="800" as="geometry" />
          </mxCell>
        </object>
        <mxCell id="nO3HiCi1PGXCBBRZYHxR-7" value="CustomerDB" style="dashed=0;outlineConnect=0;html=1;align=center;labelPosition=center;verticalLabelPosition=bottom;verticalAlign=top;shape=mxgraph.webicons.mongodb;gradientColor=#DFDEDE;strokeWidth=2;" parent="1" vertex="1">
          <mxGeometry x="640" y="225" width="80" height="80" as="geometry" />
        </mxCell>
        <mxCell id="nO3HiCi1PGXCBBRZYHxR-9" value="AccountDB" style="dashed=0;outlineConnect=0;html=1;align=center;labelPosition=center;verticalLabelPosition=bottom;verticalAlign=top;shape=mxgraph.webicons.mongodb;gradientColor=#DFDEDE" parent="1" vertex="1">
          <mxGeometry x="640" y="420" width="80" height="80" as="geometry" />
        </mxCell>
        <mxCell id="nO3HiCi1PGXCBBRZYHxR-10" value="CreditProductDB" style="dashed=0;outlineConnect=0;html=1;align=center;labelPosition=center;verticalLabelPosition=bottom;verticalAlign=top;shape=mxgraph.webicons.mongodb;gradientColor=#DFDEDE" parent="1" vertex="1">
          <mxGeometry x="640" y="555" width="80" height="80" as="geometry" />
        </mxCell>
        <mxCell id="nO3HiCi1PGXCBBRZYHxR-16" style="rounded=0;orthogonalLoop=1;jettySize=auto;html=1;entryX=0.194;entryY=0.877;entryDx=0;entryDy=0;entryPerimeter=0;exitX=0.5;exitY=0;exitDx=0;exitDy=0;exitPerimeter=0;" parent="1" source="nO3HiCi1PGXCBBRZYHxR-3" target="nO3HiCi1PGXCBBRZYHxR-2" edge="1">
          <mxGeometry relative="1" as="geometry">
            <mxPoint x="90" y="600" as="sourcePoint" />
          </mxGeometry>
        </mxCell>
        <mxCell id="nO3HiCi1PGXCBBRZYHxR-14" style="edgeStyle=orthogonalEdgeStyle;rounded=0;orthogonalLoop=1;jettySize=auto;html=1;exitX=1;exitY=0.5;exitDx=0;exitDy=0;exitPerimeter=0;entryX=0;entryY=0.5;entryDx=0;entryDy=0;entryPerimeter=0;" parent="1" source="nO3HiCi1PGXCBBRZYHxR-3" target="nO3HiCi1PGXCBBRZYHxR-9" edge="1">
          <mxGeometry relative="1" as="geometry">
            <Array as="points">
              <mxPoint x="310" y="595" />
              <mxPoint x="310" y="460" />
            </Array>
          </mxGeometry>
        </mxCell>
        <mxCell id="nO3HiCi1PGXCBBRZYHxR-13" style="edgeStyle=orthogonalEdgeStyle;rounded=0;orthogonalLoop=1;jettySize=auto;html=1;" parent="1" source="nO3HiCi1PGXCBBRZYHxR-2" target="nO3HiCi1PGXCBBRZYHxR-7" edge="1">
          <mxGeometry relative="1" as="geometry" />
        </mxCell>
        <mxCell id="nO3HiCi1PGXCBBRZYHxR-15" style="edgeStyle=orthogonalEdgeStyle;rounded=0;orthogonalLoop=1;jettySize=auto;html=1;exitX=1;exitY=0.5;exitDx=0;exitDy=0;exitPerimeter=0;" parent="1" source="nO3HiCi1PGXCBBRZYHxR-4" target="nO3HiCi1PGXCBBRZYHxR-10" edge="1">
          <mxGeometry relative="1" as="geometry" />
        </mxCell>
        <mxCell id="nO3HiCi1PGXCBBRZYHxR-24" style="edgeStyle=orthogonalEdgeStyle;rounded=0;orthogonalLoop=1;jettySize=auto;html=1;" parent="1" source="nO3HiCi1PGXCBBRZYHxR-19" target="nO3HiCi1PGXCBBRZYHxR-23" edge="1">
          <mxGeometry relative="1" as="geometry" />
        </mxCell>
        <object placeholders="1" c4Name="ms-bank-&#xa;transaction" c4Type="Container" c4Technology="Java, Spring Boot, Maven, WebFlux" c4Description="Microservicio de gestión&#xa;de transacciones" label="&lt;font style=&quot;font-size: 16px&quot;&gt;&lt;b&gt;%c4Name%&lt;/b&gt;&lt;/font&gt;&lt;div&gt;[%c4Type%:&amp;nbsp;%c4Technology%]&lt;/div&gt;&lt;br&gt;&lt;div&gt;&lt;font style=&quot;font-size: 11px&quot;&gt;&lt;font color=&quot;#E6E6E6&quot;&gt;%c4Description%&lt;/font&gt;&lt;/div&gt;" id="nO3HiCi1PGXCBBRZYHxR-19">
          <mxCell style="shape=hexagon;size=50;perimeter=hexagonPerimeter2;whiteSpace=wrap;html=1;fixedSize=1;rounded=1;labelBackgroundColor=none;fillColor=#23A2D9;fontSize=12;fontColor=#ffffff;align=center;strokeColor=#0E7DAD;metaEdit=1;points=[[0.5,0,0],[1,0.25,0],[1,0.5,0],[1,0.75,0],[0.5,1,0],[0,0.75,0],[0,0.5,0],[0,0.25,0]];resizable=0;" parent="1" vertex="1">
            <mxGeometry x="210" y="720" width="200" height="170" as="geometry" />
          </mxCell>
        </object>
        <object placeholders="1" c4Name="ms-bank-&#xa;customer-account" c4Type="Container" c4Technology="Java, Spring Boot,&#xa;Maven, WebFlux" c4Description="Microservicio de gestión de &#xa;Cuentas bancarias (Pasivos)" label="&lt;font style=&quot;font-size: 16px&quot;&gt;&lt;b&gt;%c4Name%&lt;/b&gt;&lt;/font&gt;&lt;div&gt;[%c4Type%:&amp;nbsp;%c4Technology%]&lt;/div&gt;&lt;br&gt;&lt;div&gt;&lt;font style=&quot;font-size: 11px&quot;&gt;&lt;font color=&quot;#E6E6E6&quot;&gt;%c4Description%&lt;/font&gt;&lt;/div&gt;" id="nO3HiCi1PGXCBBRZYHxR-3">
          <mxCell style="shape=hexagon;size=50;perimeter=hexagonPerimeter2;whiteSpace=wrap;html=1;fixedSize=1;rounded=1;labelBackgroundColor=none;fillColor=#23A2D9;fontSize=12;fontColor=#ffffff;align=center;strokeColor=#0E7DAD;metaEdit=1;points=[[0.5,0,0],[1,0.25,0],[1,0.5,0],[1,0.75,0],[0.5,1,0],[0,0.75,0],[0,0.5,0],[0,0.25,0]];resizable=0;" parent="1" vertex="1">
            <mxGeometry x="90" y="510" width="200" height="170" as="geometry" />
          </mxCell>
        </object>
        <object placeholders="1" c4Name="ms-bank-&#xa;customer-credit" c4Type="Container" c4Technology="Java, Spring Boot&#xa;Maven, WebFlux" c4Description="Microservicio de gestión &#xa;de Créditos (Activos)" label="&lt;font style=&quot;font-size: 16px&quot;&gt;&lt;b&gt;%c4Name%&lt;/b&gt;&lt;/font&gt;&lt;div&gt;[%c4Type%:&amp;nbsp;%c4Technology%]&lt;/div&gt;&lt;br&gt;&lt;div&gt;&lt;font style=&quot;font-size: 11px&quot;&gt;&lt;font color=&quot;#E6E6E6&quot;&gt;%c4Description%&lt;/font&gt;&lt;/div&gt;" id="nO3HiCi1PGXCBBRZYHxR-4">
          <mxCell style="shape=hexagon;size=50;perimeter=hexagonPerimeter2;whiteSpace=wrap;html=1;fixedSize=1;rounded=1;labelBackgroundColor=none;fillColor=#23A2D9;fontSize=12;fontColor=#ffffff;align=center;strokeColor=#0E7DAD;metaEdit=1;points=[[0.5,0,0],[1,0.25,0],[1,0.5,0],[1,0.75,0],[0.5,1,0],[0,0.75,0],[0,0.5,0],[0,0.25,0]];resizable=0;" parent="1" vertex="1">
            <mxGeometry x="330" y="510" width="200" height="170" as="geometry" />
          </mxCell>
        </object>
        <object placeholders="1" c4Name="bank-customer" c4Type="Container" c4Technology="Java, Spring Boot, &#xa;Maven, WebFlux" c4Description="Microservicio de &#xa;gestión de clientes" label="&lt;font style=&quot;font-size: 16px&quot;&gt;&lt;b&gt;%c4Name%&lt;/b&gt;&lt;/font&gt;&lt;div&gt;[%c4Type%:&amp;nbsp;%c4Technology%]&lt;/div&gt;&lt;br&gt;&lt;div&gt;&lt;font style=&quot;font-size: 11px&quot;&gt;&lt;font color=&quot;#E6E6E6&quot;&gt;%c4Description%&lt;/font&gt;&lt;/div&gt;" id="nO3HiCi1PGXCBBRZYHxR-2">
          <mxCell style="shape=hexagon;size=50;perimeter=hexagonPerimeter2;whiteSpace=wrap;html=1;fixedSize=1;rounded=1;labelBackgroundColor=none;fillColor=#23A2D9;fontSize=12;fontColor=#ffffff;align=center;strokeColor=#0E7DAD;metaEdit=1;points=[[0.5,0,0],[1,0.25,0],[1,0.5,0],[1,0.75,0],[0.5,1,0],[0,0.75,0],[0,0.5,0],[0,0.25,0]];resizable=0;" parent="1" vertex="1">
            <mxGeometry x="200" y="180" width="200" height="170" as="geometry" />
          </mxCell>
        </object>
        <mxCell id="nO3HiCi1PGXCBBRZYHxR-20" style="rounded=0;orthogonalLoop=1;jettySize=auto;html=1;entryX=0.5;entryY=1;entryDx=0;entryDy=0;entryPerimeter=0;" parent="1" source="nO3HiCi1PGXCBBRZYHxR-19" target="nO3HiCi1PGXCBBRZYHxR-3" edge="1">
          <mxGeometry relative="1" as="geometry" />
        </mxCell>
        <mxCell id="nO3HiCi1PGXCBBRZYHxR-21" style="rounded=0;orthogonalLoop=1;jettySize=auto;html=1;entryX=0.5;entryY=1;entryDx=0;entryDy=0;entryPerimeter=0;" parent="1" source="nO3HiCi1PGXCBBRZYHxR-19" target="nO3HiCi1PGXCBBRZYHxR-4" edge="1">
          <mxGeometry relative="1" as="geometry" />
        </mxCell>
        <mxCell id="nO3HiCi1PGXCBBRZYHxR-23" value="TransactionDB" style="dashed=0;outlineConnect=0;html=1;align=center;labelPosition=center;verticalLabelPosition=bottom;verticalAlign=top;shape=mxgraph.webicons.mongodb;gradientColor=#DFDEDE" parent="1" vertex="1">
          <mxGeometry x="640" y="720" width="80" height="80" as="geometry" />
        </mxCell>
      </root>
    </mxGraphModel>
  </diagram>
  <diagram id="w6Nf2m52Z0m5jVa_ZXPL" name="Arquitectura V3">
    <mxGraphModel dx="1434" dy="752" grid="1" gridSize="10" guides="1" tooltips="1" connect="1" arrows="1" fold="1" page="1" pageScale="1" pageWidth="827" pageHeight="1169" math="0" shadow="0">
      <root>
        <mxCell id="0" />
        <mxCell id="1" parent="0" />
        <object placeholders="1" c4Name="Api Gateway" c4Type="ContainerScopeBoundary" c4Application="Spring Cloud" label="&lt;font style=&quot;font-size: 16px&quot;&gt;&lt;b&gt;&lt;div style=&quot;text-align: left&quot;&gt;%c4Name%&lt;/div&gt;&lt;/b&gt;&lt;/font&gt;&lt;div style=&quot;text-align: left&quot;&gt;[%c4Application%]&lt;/div&gt;" id="seuOisZTkPId3t4UCby2-2">
          <mxCell style="rounded=1;fontSize=11;whiteSpace=wrap;html=1;dashed=1;arcSize=20;fillColor=#dae8fc;strokeColor=#6c8ebf;labelBackgroundColor=none;align=left;verticalAlign=bottom;labelBorderColor=none;spacingTop=0;spacing=10;dashPattern=8 4;metaEdit=1;rotatable=0;perimeter=rectanglePerimeter;noLabel=0;labelPadding=0;allowArrows=0;connectable=0;expand=0;recursiveResize=0;editable=1;pointerEvents=0;absoluteArcSize=1;points=[[0.25,0,0],[0.5,0,0],[0.75,0,0],[1,0.25,0],[1,0.5,0],[1,0.75,0],[0.75,1,0],[0.5,1,0],[0.25,1,0],[0,0.75,0],[0,0.5,0],[0,0.25,0]];" parent="1" vertex="1">
            <mxGeometry x="230" y="200" width="170" height="139.8" as="geometry" />
          </mxCell>
        </object>
        <object placeholders="1" c4Name="Data Base" c4Type="ContainerScopeBoundary" c4Application="MongoDB" label="&lt;font style=&quot;font-size: 16px&quot;&gt;&lt;b&gt;&lt;div style=&quot;text-align: left&quot;&gt;%c4Name%&lt;/div&gt;&lt;/b&gt;&lt;/font&gt;&lt;div style=&quot;text-align: left&quot;&gt;[%c4Application%]&lt;/div&gt;" id="HlQR7FsXZW-V04fCFMbw-1">
          <mxCell style="rounded=1;fontSize=11;whiteSpace=wrap;html=1;dashed=1;arcSize=20;fillColor=#f5f5f5;strokeColor=#666666;fontColor=#333333;labelBackgroundColor=none;align=left;verticalAlign=bottom;labelBorderColor=none;spacingTop=0;spacing=10;dashPattern=8 4;metaEdit=1;rotatable=0;perimeter=rectanglePerimeter;noLabel=0;labelPadding=0;allowArrows=0;connectable=0;expand=0;recursiveResize=0;editable=1;pointerEvents=0;absoluteArcSize=1;points=[[0.25,0,0],[0.5,0,0],[0.75,0,0],[1,0.25,0],[1,0.5,0],[1,0.75,0],[0.75,1,0],[0.5,1,0],[0.25,1,0],[0,0.75,0],[0,0.5,0],[0,0.25,0]];" parent="1" vertex="1">
            <mxGeometry x="810" y="50" width="130" height="535" as="geometry" />
          </mxCell>
        </object>
        <object placeholders="1" c4Name="Discovery Service" c4Type="ContainerScopeBoundary" c4Application="Spring Cloud" label="&lt;font style=&quot;font-size: 16px&quot;&gt;&lt;b&gt;&lt;div style=&quot;text-align: left&quot;&gt;%c4Name%&lt;/div&gt;&lt;/b&gt;&lt;/font&gt;&lt;div style=&quot;text-align: left&quot;&gt;[%c4Application%]&lt;/div&gt;" id="8J4xFF0oM6bcoU2n6hZ8-1">
          <mxCell style="rounded=1;fontSize=11;whiteSpace=wrap;html=1;dashed=1;arcSize=20;fillColor=#fad9d5;strokeColor=#ae4132;labelBackgroundColor=none;align=left;verticalAlign=bottom;labelBorderColor=none;spacingTop=0;spacing=10;dashPattern=8 4;metaEdit=1;rotatable=0;perimeter=rectanglePerimeter;noLabel=0;labelPadding=0;allowArrows=0;connectable=0;expand=0;recursiveResize=0;editable=1;pointerEvents=0;absoluteArcSize=1;points=[[0.25,0,0],[0.5,0,0],[0.75,0,0],[1,0.25,0],[1,0.5,0],[1,0.75,0],[0.75,1,0],[0.5,1,0],[0.25,1,0],[0,0.75,0],[0,0.5,0],[0,0.25,0]];" parent="1" vertex="1">
            <mxGeometry x="230" y="50" width="170" height="139.8" as="geometry" />
          </mxCell>
        </object>
        <mxCell id="fBAG_2Qvh-3vgz0H6QJY-2" value="ms-eureka-server" style="sketch=0;outlineConnect=0;fontColor=#232F3E;gradientColor=none;fillColor=#ED7100;strokeColor=none;dashed=0;verticalLabelPosition=bottom;verticalAlign=top;align=center;html=1;fontSize=12;fontStyle=0;aspect=fixed;pointerEvents=1;shape=mxgraph.aws4.ec2_aws_microservice_extractor_for_net;" parent="1" vertex="1">
          <mxGeometry x="291" y="69.79999999999998" width="48" height="48" as="geometry" />
        </mxCell>
        <mxCell id="fBAG_2Qvh-3vgz0H6QJY-7" value="ms-gateway-server" style="sketch=0;html=1;verticalAlign=top;labelPosition=center;verticalLabelPosition=bottom;align=center;spacingTop=-6;fontSize=11;fontStyle=0;fontColor=#000000;shape=image;aspect=fixed;imageAspect=0;image=data:image/svg+xml,PHN2ZyB4bWxucz0iaHR0cDovL3d3dy53My5vcmcvMjAwMC9zdmciIGhlaWdodD0iMzY3LjgxODMyODg1NzQyMTkiIHZpZXdCb3g9IjcuMTA1NDI3MzU3NjAxMDAyZS0xNSAwIDM2Ni40MTAxODY3Njc1NzgxIDM2Ny44MTgzMjg4NTc0MjE5IiBwcmVzZXJ2ZUFzcGVjdFJhdGlvPSJ4TWlkWU1pZCBtZWV0IiB3aWR0aD0iMzY2LjQxMDE5Njc2NzU3OTEiIHZlcnNpb249IjEuMSIgaWQ9InN2Zzk4NyIgem9vbUFuZFBhbj0ibWFnbmlmeSI+JiN4YTsgIDxwYXRoIGQ9Im0gNDguMjUxOTYsMTExLjUzOTA2IGMgLTcuNjE4NjQsMmUtNCAtMTMuNzk0NzIsNi4xNzYyOCAtMTMuNzk0OTMsMTMuNzk0OTIgMi4xZS00LDcuNjE4NjQgNi4xNzYyOSwxMy43OTQ3MiAxMy43OTQ5MywxMy43OTQ5MiBoIDE0NS4xNDY5MiB2IC0yNy41ODk4NCB6IG0gMjM4LjYwODU5LDU3LjQ1MTE3IGggNjUuNzU0NjkgYyA3LjYxODY0LC0yLjFlLTQgMTMuNzk0NzEsLTYuMTc2MjggMTMuNzk0OTIsLTEzLjc5NDkyIC0yLjFlLTQsLTcuNjE4NjQgLTYuMTc2MjgsLTEzLjc5NDcxIC0xMy43OTQ5MiwtMTMuNzk0OTIgSCAyODQuODUwNiBaIE0gMTMuNzk0OTIsMTcwLjk3NDYxIEMgNi4xNzYyODAxLDE3MC45NzQ4MiAyLjEwMDkxOWUtNCwxNzcuMTUwODkgOS4xODk5MjFlLTgsMTg0Ljc2OTUzIC04LjY5OTA4MWUtNCwxOTIuMzg4OTMgNi4xNzU1MjAxLDE5OC41NjYxOSAxMy43OTQ5MiwxOTguNTY2NCBIIDE5My4zOTg4OCBWIDE3MC45NzQ2MSBaIE0gMjg0LjMwNzgsMjI3LjU2NjQgaCA2OC4zMDc0NCBjIDcuNjE4NjQsLTIuMWUtNCAxMy43OTQ3MSwtNi4xNzYyOCAxMy43OTQ5MiwtMTMuNzk0OTIgLTIuMWUtNCwtNy42MTg2NCAtNi4xNzYyOCwtMTMuNzk0NzEgLTEzLjc5NDkyLC0xMy43OTQ5MiBoIC02NS45MjE3OCB6IG0gLTIzNi4wNTU4NCwxLjY5NzI3IGMgLTcuNjE4NjQsMmUtNCAtMTMuNzk0NzIsNi4xNzYyOCAtMTMuNzk0OTMsMTMuNzk0OTIgMi4xZS00LDcuNjE4NjQgNi4xNzYyOSwxMy43OTQ3MiAxMy43OTQ5MywxMy43OTQ5MiBIIDE5My4zOTg4OCBWIDIyOS4yNjM2NyBaIE0gMTg5LjUyMTQ5LDAgYyAtMjQuNTc0MTEsMCAtNDkuMTY3MzcsMjAuMDU1MDcgLTU5LjQzNzUsNzUuMzczMDQgaCAzMC41ODAwNyBjIDQuNjE2MzMsLTI0LjE2MjA2IDE1LjM0ODk2LC00Ny41MjE0OCAyNy44NTM1MiwtNDcuNTIxNDggMTIuMTU4OCwwIDM5LjQ1ODk4LDU3LjQ1MDQ0IDM5LjQ1ODk4LDE2MC40MTQwNiAwLDY5LjkxNTEzIC0xOS41NzgwOSwxNTIuMTE1MjQgLTQxLjE3MTg3LDE1Mi4xMTUyMyAtMTUuMjY4ODEsMmUtNSAtMjEuMjE2NjgsLTI4LjMzMzU2IC0yNS40NDMzNiwtNDYuNzE4NzQgbCAtMzAuNDE0MDYsLTAuMDY4NCBjIDQuMjIwNzQsMjAuNTQwODcgMTYuOTA3NjgsNzQuMjI0NiA1Ny43MTI4OSw3NC4yMjQ2IDUzLjQzNjcyLDAgNjguOTEyMTEsLTExMS45OTMwNSA2OC45MTIxMSwtMTgwLjQ2Mjg5IEMgMjU3LjU3MjI3LDkzLjgwMDc2IDIzNi41ODM0LDAgMTg5LjUyMTQ5LDAgWiIgc3R5bGU9ImNvbG9yOiMwMDAwMDA7b3BhY2l0eToxO2ZpbGw6IzQyODVmNDtmaWxsLW9wYWNpdHk6MTtzdHJva2UtbGluZWNhcDpyb3VuZDstaW5rc2NhcGUtc3Ryb2tlOm5vbmUiLz4mI3hhOzwvc3ZnPg==;" parent="1" vertex="1">
          <mxGeometry x="291" y="219.8" width="52" height="52" as="geometry" />
        </mxCell>
        <mxCell id="fBAG_2Qvh-3vgz0H6QJY-10" value="customerdb" style="dashed=0;outlineConnect=0;html=1;align=center;labelPosition=center;verticalLabelPosition=bottom;verticalAlign=top;shape=mxgraph.webicons.mongodb;gradientColor=#DFDEDE" parent="1" vertex="1">
          <mxGeometry x="840" y="79.8" width="60" height="45.2" as="geometry" />
        </mxCell>
        <object placeholders="1" c4Name="Bootcamp BC58" c4Type="SystemScopeBoundary" c4Application="NTT DATA" label="&lt;font style=&quot;font-size: 16px&quot;&gt;&lt;b&gt;&lt;div style=&quot;text-align: left&quot;&gt;%c4Name%&lt;/div&gt;&lt;/b&gt;&lt;/font&gt;&lt;div style=&quot;text-align: left&quot;&gt;[%c4Application%]&lt;/div&gt;" id="fBAG_2Qvh-3vgz0H6QJY-11">
          <mxCell style="rounded=1;fontSize=11;whiteSpace=wrap;html=1;dashed=1;arcSize=20;fillColor=none;strokeColor=#666666;fontColor=#333333;labelBackgroundColor=none;align=left;verticalAlign=bottom;labelBorderColor=none;spacingTop=0;spacing=10;dashPattern=8 4;metaEdit=1;rotatable=0;perimeter=rectanglePerimeter;noLabel=0;labelPadding=0;allowArrows=0;connectable=0;expand=0;recursiveResize=0;editable=1;pointerEvents=0;absoluteArcSize=1;points=[[0.25,0,0],[0.5,0,0],[0.75,0,0],[1,0.25,0],[1,0.5,0],[1,0.75,0],[0.75,1,0],[0.5,1,0],[0.25,1,0],[0,0.75,0],[0,0.5,0],[0,0.25,0]];" parent="1" vertex="1">
            <mxGeometry x="20" y="30" width="970" height="730" as="geometry" />
          </mxCell>
        </object>
        <object placeholders="1" c4Name="Microservices" c4Type="ContainerScopeBoundary" c4Application="SpringBoot" label="&lt;font style=&quot;font-size: 16px&quot;&gt;&lt;b&gt;&lt;div style=&quot;text-align: left&quot;&gt;%c4Name%&lt;/div&gt;&lt;/b&gt;&lt;/font&gt;&lt;div style=&quot;text-align: left&quot;&gt;[%c4Application%]&lt;/div&gt;" id="seuOisZTkPId3t4UCby2-1">
          <mxCell style="rounded=1;fontSize=11;whiteSpace=wrap;html=1;dashed=1;arcSize=20;fillColor=#ffe6cc;strokeColor=#d79b00;labelBackgroundColor=none;align=left;verticalAlign=bottom;labelBorderColor=none;spacingTop=0;spacing=10;dashPattern=8 4;metaEdit=1;rotatable=0;perimeter=rectanglePerimeter;noLabel=0;labelPadding=0;allowArrows=0;connectable=0;expand=0;recursiveResize=0;editable=1;pointerEvents=0;absoluteArcSize=1;points=[[0.25,0,0],[0.5,0,0],[0.75,0,0],[1,0.25,0],[1,0.5,0],[1,0.75,0],[0.75,1,0],[0.5,1,0],[0.25,1,0],[0,0.75,0],[0,0.5,0],[0,0.25,0]];" parent="1" vertex="1">
            <mxGeometry x="520" y="50" width="280" height="535" as="geometry" />
          </mxCell>
        </object>
        <mxCell id="seuOisZTkPId3t4UCby2-12" style="edgeStyle=orthogonalEdgeStyle;rounded=0;orthogonalLoop=1;jettySize=auto;html=1;entryX=0;entryY=0.5;entryDx=0;entryDy=0;" parent="1" source="seuOisZTkPId3t4UCby2-5" target="fBAG_2Qvh-3vgz0H6QJY-7" edge="1">
          <mxGeometry relative="1" as="geometry" />
        </mxCell>
        <mxCell id="seuOisZTkPId3t4UCby2-5" value="Cliente" style="aspect=fixed;sketch=0;html=1;dashed=0;whitespace=wrap;verticalLabelPosition=bottom;verticalAlign=top;fillColor=#2875E2;strokeColor=#ffffff;points=[[0.005,0.63,0],[0.1,0.2,0],[0.9,0.2,0],[0.5,0,0],[0.995,0.63,0],[0.72,0.99,0],[0.5,1,0],[0.28,0.99,0]];shape=mxgraph.kubernetes.icon2;prIcon=user" parent="1" vertex="1">
          <mxGeometry x="40" y="222" width="50" height="48" as="geometry" />
        </mxCell>
        <mxCell id="seuOisZTkPId3t4UCby2-8" value="creditproductdb" style="dashed=0;outlineConnect=0;html=1;align=center;labelPosition=center;verticalLabelPosition=bottom;verticalAlign=top;shape=mxgraph.webicons.mongodb;gradientColor=#DFDEDE" parent="1" vertex="1">
          <mxGeometry x="840" y="242.4" width="60" height="45.2" as="geometry" />
        </mxCell>
        <mxCell id="seuOisZTkPId3t4UCby2-9" value="bankaccountdb" style="dashed=0;outlineConnect=0;html=1;align=center;labelPosition=center;verticalLabelPosition=bottom;verticalAlign=top;shape=mxgraph.webicons.mongodb;gradientColor=#DFDEDE" parent="1" vertex="1">
          <mxGeometry x="840" y="155" width="60" height="45.2" as="geometry" />
        </mxCell>
        <mxCell id="seuOisZTkPId3t4UCby2-10" value="banktransactiondb" style="dashed=0;outlineConnect=0;html=1;align=center;labelPosition=center;verticalLabelPosition=bottom;verticalAlign=top;shape=mxgraph.webicons.mongodb;gradientColor=#DFDEDE" parent="1" vertex="1">
          <mxGeometry x="840" y="324.8" width="60" height="45.2" as="geometry" />
        </mxCell>
        <mxCell id="XYPsVVU77f20IYhsbMsA-4" style="rounded=0;orthogonalLoop=1;jettySize=auto;html=1;" parent="1" source="seuOisZTkPId3t4UCby2-11" target="seuOisZTkPId3t4UCby2-10" edge="1">
          <mxGeometry relative="1" as="geometry" />
        </mxCell>
        <mxCell id="XYPsVVU77f20IYhsbMsA-1" style="rounded=0;orthogonalLoop=1;jettySize=auto;html=1;entryX=0.05;entryY=0.535;entryDx=0;entryDy=0;entryPerimeter=0;" parent="1" source="fBAG_2Qvh-3vgz0H6QJY-4" target="fBAG_2Qvh-3vgz0H6QJY-10" edge="1">
          <mxGeometry relative="1" as="geometry" />
        </mxCell>
        <mxCell id="fBAG_2Qvh-3vgz0H6QJY-3" value="ms-bankcredit" style="sketch=0;outlineConnect=0;fontColor=#232F3E;gradientColor=none;fillColor=#ED7100;strokeColor=none;dashed=0;verticalLabelPosition=bottom;verticalAlign=top;align=center;html=1;fontSize=12;fontStyle=0;aspect=fixed;pointerEvents=1;shape=mxgraph.aws4.ec2_aws_microservice_extractor_for_net;" parent="1" vertex="1">
          <mxGeometry x="713" y="239.6" width="48" height="48" as="geometry" />
        </mxCell>
        <mxCell id="8J4xFF0oM6bcoU2n6hZ8-2" value="" style="endArrow=classic;html=1;rounded=0;" parent="1" target="fBAG_2Qvh-3vgz0H6QJY-2" edge="1">
          <mxGeometry width="50" height="50" relative="1" as="geometry">
            <mxPoint x="520" y="100" as="sourcePoint" />
            <mxPoint x="300" y="370" as="targetPoint" />
          </mxGeometry>
        </mxCell>
        <mxCell id="8J4xFF0oM6bcoU2n6hZ8-3" value="" style="endArrow=classic;html=1;rounded=0;exitX=0.5;exitY=0;exitDx=0;exitDy=0;" parent="1" target="fBAG_2Qvh-3vgz0H6QJY-2" edge="1" source="fBAG_2Qvh-3vgz0H6QJY-7">
          <mxGeometry width="50" height="50" relative="1" as="geometry">
            <mxPoint x="306" y="239.8" as="sourcePoint" />
            <mxPoint x="310" y="309.8" as="targetPoint" />
          </mxGeometry>
        </mxCell>
        <mxCell id="qHuDBAiOY7oOa5-v2ZlL-2" style="rounded=0;orthogonalLoop=1;jettySize=auto;html=1;dashed=1;" parent="1" source="fBAG_2Qvh-3vgz0H6QJY-1" target="fBAG_2Qvh-3vgz0H6QJY-3" edge="1">
          <mxGeometry relative="1" as="geometry" />
        </mxCell>
        <mxCell id="fBAG_2Qvh-3vgz0H6QJY-1" value="ms-bankaccount" style="sketch=0;outlineConnect=0;fontColor=#232F3E;gradientColor=none;fillColor=#ED7100;strokeColor=none;dashed=0;verticalLabelPosition=bottom;verticalAlign=top;align=center;html=1;fontSize=12;fontStyle=0;aspect=fixed;pointerEvents=1;shape=mxgraph.aws4.ec2_aws_microservice_extractor_for_net;" parent="1" vertex="1">
          <mxGeometry x="550" y="239.60000000000002" width="48" height="48" as="geometry" />
        </mxCell>
        <mxCell id="fBAG_2Qvh-3vgz0H6QJY-4" value="ms-customer" style="sketch=0;outlineConnect=0;fontColor=#232F3E;gradientColor=none;fillColor=#ED7100;strokeColor=none;dashed=0;verticalLabelPosition=bottom;verticalAlign=top;align=center;html=1;fontSize=12;fontStyle=0;aspect=fixed;pointerEvents=1;shape=mxgraph.aws4.ec2_aws_microservice_extractor_for_net;" parent="1" vertex="1">
          <mxGeometry x="650" y="95" width="48" height="48" as="geometry" />
        </mxCell>
        <mxCell id="qHuDBAiOY7oOa5-v2ZlL-5" style="rounded=0;orthogonalLoop=1;jettySize=auto;html=1;dashed=1;" parent="1" source="seuOisZTkPId3t4UCby2-11" target="fBAG_2Qvh-3vgz0H6QJY-3" edge="1">
          <mxGeometry relative="1" as="geometry" />
        </mxCell>
        <mxCell id="qHuDBAiOY7oOa5-v2ZlL-4" style="rounded=0;orthogonalLoop=1;jettySize=auto;html=1;dashed=1;" parent="1" source="seuOisZTkPId3t4UCby2-11" target="fBAG_2Qvh-3vgz0H6QJY-1" edge="1">
          <mxGeometry relative="1" as="geometry" />
        </mxCell>
        <mxCell id="seuOisZTkPId3t4UCby2-11" value="ms-transaction" style="sketch=0;outlineConnect=0;fontColor=#232F3E;gradientColor=none;fillColor=#ED7100;strokeColor=none;dashed=0;verticalLabelPosition=bottom;verticalAlign=top;align=center;html=1;fontSize=12;fontStyle=0;aspect=fixed;pointerEvents=1;shape=mxgraph.aws4.ec2_aws_microservice_extractor_for_net;" parent="1" vertex="1">
          <mxGeometry x="680" y="350" width="48" height="48" as="geometry" />
        </mxCell>
        <mxCell id="XYPsVVU77f20IYhsbMsA-2" style="rounded=0;orthogonalLoop=1;jettySize=auto;html=1;" parent="1" source="fBAG_2Qvh-3vgz0H6QJY-3" target="seuOisZTkPId3t4UCby2-8" edge="1">
          <mxGeometry relative="1" as="geometry" />
        </mxCell>
        <mxCell id="XYPsVVU77f20IYhsbMsA-3" style="rounded=0;orthogonalLoop=1;jettySize=auto;html=1;" parent="1" source="fBAG_2Qvh-3vgz0H6QJY-1" target="seuOisZTkPId3t4UCby2-9" edge="1">
          <mxGeometry relative="1" as="geometry" />
        </mxCell>
        <mxCell id="DgC-zNluo4wiE4wLOiC3-16" style="rounded=0;orthogonalLoop=1;jettySize=auto;html=1;" edge="1" parent="1" source="DgC-zNluo4wiE4wLOiC3-2" target="DgC-zNluo4wiE4wLOiC3-13">
          <mxGeometry relative="1" as="geometry" />
        </mxCell>
        <mxCell id="DgC-zNluo4wiE4wLOiC3-17" style="rounded=0;orthogonalLoop=1;jettySize=auto;html=1;entryX=0.78;entryY=0.724;entryDx=0;entryDy=0;entryPerimeter=0;dashed=1;" edge="1" parent="1" source="DgC-zNluo4wiE4wLOiC3-2" target="DgC-zNluo4wiE4wLOiC3-6">
          <mxGeometry relative="1" as="geometry">
            <mxPoint x="460" y="700" as="targetPoint" />
          </mxGeometry>
        </mxCell>
        <mxCell id="DgC-zNluo4wiE4wLOiC3-45" value="Publicador" style="edgeLabel;html=1;align=center;verticalAlign=middle;resizable=0;points=[];" vertex="1" connectable="0" parent="DgC-zNluo4wiE4wLOiC3-17">
          <mxGeometry x="0.5747" y="2" relative="1" as="geometry">
            <mxPoint as="offset" />
          </mxGeometry>
        </mxCell>
        <mxCell id="DgC-zNluo4wiE4wLOiC3-24" style="rounded=0;orthogonalLoop=1;jettySize=auto;html=1;dashed=1;" edge="1" parent="1" source="DgC-zNluo4wiE4wLOiC3-2" target="fBAG_2Qvh-3vgz0H6QJY-1">
          <mxGeometry relative="1" as="geometry" />
        </mxCell>
        <mxCell id="DgC-zNluo4wiE4wLOiC3-26" style="rounded=0;orthogonalLoop=1;jettySize=auto;html=1;entryX=0.195;entryY=0.737;entryDx=0;entryDy=0;entryPerimeter=0;dashed=1;" edge="1" parent="1" source="DgC-zNluo4wiE4wLOiC3-2" target="DgC-zNluo4wiE4wLOiC3-25">
          <mxGeometry relative="1" as="geometry">
            <mxPoint x="630" y="640" as="targetPoint" />
          </mxGeometry>
        </mxCell>
        <mxCell id="DgC-zNluo4wiE4wLOiC3-38" value="Publicador" style="edgeLabel;html=1;align=center;verticalAlign=middle;resizable=0;points=[];" vertex="1" connectable="0" parent="DgC-zNluo4wiE4wLOiC3-26">
          <mxGeometry x="0.5235" y="1" relative="1" as="geometry">
            <mxPoint as="offset" />
          </mxGeometry>
        </mxCell>
        <mxCell id="DgC-zNluo4wiE4wLOiC3-2" value="ms-mobilewallet" style="sketch=0;outlineConnect=0;fontColor=#232F3E;gradientColor=none;fillColor=#ED7100;strokeColor=none;dashed=0;verticalLabelPosition=bottom;verticalAlign=top;align=center;html=1;fontSize=12;fontStyle=0;aspect=fixed;pointerEvents=1;shape=mxgraph.aws4.ec2_aws_microservice_extractor_for_net;" vertex="1" parent="1">
          <mxGeometry x="598" y="434.36" width="48" height="48" as="geometry" />
        </mxCell>
        <mxCell id="DgC-zNluo4wiE4wLOiC3-4" value="saveBalanceAccount" style="image;sketch=0;aspect=fixed;html=1;points=[];align=center;fontSize=12;image=img/lib/mscae/Cache_Redis_Product.svg;" vertex="1" parent="1">
          <mxGeometry x="597" y="662" width="50" height="42" as="geometry" />
        </mxCell>
        <object placeholders="1" c4Name="Tópicos" c4Type="ContainerScopeBoundary" c4Application="Apache Kafka" label="&lt;font style=&quot;font-size: 16px&quot;&gt;&lt;b&gt;&lt;div style=&quot;text-align: left&quot;&gt;%c4Name%&lt;/div&gt;&lt;/b&gt;&lt;/font&gt;&lt;div style=&quot;text-align: left&quot;&gt;[%c4Application%]&lt;/div&gt;" id="DgC-zNluo4wiE4wLOiC3-7">
          <mxCell style="rounded=1;fontSize=11;whiteSpace=wrap;html=1;dashed=1;arcSize=20;fillColor=#f5f5f5;strokeColor=#666666;fontColor=#333333;labelBackgroundColor=none;align=left;verticalAlign=bottom;labelBorderColor=none;spacingTop=0;spacing=10;dashPattern=8 4;metaEdit=1;rotatable=0;perimeter=rectanglePerimeter;noLabel=0;labelPadding=0;allowArrows=0;connectable=0;expand=0;recursiveResize=0;editable=1;pointerEvents=0;absoluteArcSize=1;points=[[0.25,0,0],[0.5,0,0],[0.75,0,0],[1,0.25,0],[1,0.5,0],[1,0.75,0],[0.75,1,0],[0.5,1,0],[0.25,1,0],[0,0.75,0],[0,0.5,0],[0,0.25,0]];" vertex="1" parent="1">
            <mxGeometry x="130" y="360" width="370" height="340" as="geometry" />
          </mxCell>
        </object>
        <mxCell id="DgC-zNluo4wiE4wLOiC3-6" value="Tópico&amp;nbsp;&lt;div&gt;requestBankAccount&lt;/div&gt;" style="points=[];aspect=fixed;html=1;align=center;shadow=0;dashed=0;fillColor=#FF6A00;strokeColor=none;shape=mxgraph.alibaba_cloud.kafka;labelPosition=center;verticalLabelPosition=bottom;verticalAlign=top;" vertex="1" parent="1">
          <mxGeometry x="160" y="460" width="41" height="30.37" as="geometry" />
        </mxCell>
        <mxCell id="DgC-zNluo4wiE4wLOiC3-3" value="Tópico&amp;nbsp;&lt;div&gt;responseBankAccount&lt;/div&gt;" style="points=[];aspect=fixed;html=1;align=center;shadow=0;dashed=0;fillColor=#FF6A00;strokeColor=none;shape=mxgraph.alibaba_cloud.kafka;labelPosition=center;verticalLabelPosition=bottom;verticalAlign=top;" vertex="1" parent="1">
          <mxGeometry x="170" y="377.63" width="41" height="30.37" as="geometry" />
        </mxCell>
        <mxCell id="DgC-zNluo4wiE4wLOiC3-9" value="" style="endArrow=classic;html=1;rounded=0;entryX=1;entryY=0.5;entryDx=0;entryDy=0;" edge="1" parent="1" target="fBAG_2Qvh-3vgz0H6QJY-7">
          <mxGeometry width="50" height="50" relative="1" as="geometry">
            <mxPoint x="520" y="210" as="sourcePoint" />
            <mxPoint x="110" y="290" as="targetPoint" />
          </mxGeometry>
        </mxCell>
        <mxCell id="DgC-zNluo4wiE4wLOiC3-10" value="" style="endArrow=classic;startArrow=classic;html=1;rounded=0;dashed=1;" edge="1" parent="1" source="fBAG_2Qvh-3vgz0H6QJY-4" target="fBAG_2Qvh-3vgz0H6QJY-3">
          <mxGeometry width="50" height="50" relative="1" as="geometry">
            <mxPoint x="730" y="205" as="sourcePoint" />
            <mxPoint x="780" y="155" as="targetPoint" />
          </mxGeometry>
        </mxCell>
        <mxCell id="DgC-zNluo4wiE4wLOiC3-12" value="" style="endArrow=classic;startArrow=classic;html=1;rounded=0;dashed=1;" edge="1" parent="1" source="fBAG_2Qvh-3vgz0H6QJY-1" target="fBAG_2Qvh-3vgz0H6QJY-4">
          <mxGeometry width="50" height="50" relative="1" as="geometry">
            <mxPoint x="628" y="215" as="sourcePoint" />
            <mxPoint x="678" y="165" as="targetPoint" />
          </mxGeometry>
        </mxCell>
        <mxCell id="DgC-zNluo4wiE4wLOiC3-13" value="mobilewalletdb" style="dashed=0;outlineConnect=0;html=1;align=center;labelPosition=center;verticalLabelPosition=bottom;verticalAlign=top;shape=mxgraph.webicons.mongodb;gradientColor=#DFDEDE" vertex="1" parent="1">
          <mxGeometry x="840" y="434.37" width="60" height="45.2" as="geometry" />
        </mxCell>
        <mxCell id="DgC-zNluo4wiE4wLOiC3-18" style="rounded=0;orthogonalLoop=1;jettySize=auto;html=1;entryX=0.39;entryY=0.23;entryDx=0;entryDy=0;entryPerimeter=0;dashed=1;" edge="1" parent="1" source="fBAG_2Qvh-3vgz0H6QJY-1" target="DgC-zNluo4wiE4wLOiC3-6">
          <mxGeometry relative="1" as="geometry" />
        </mxCell>
        <mxCell id="DgC-zNluo4wiE4wLOiC3-46" value="Subscriptor" style="edgeLabel;html=1;align=center;verticalAlign=middle;resizable=0;points=[];" vertex="1" connectable="0" parent="DgC-zNluo4wiE4wLOiC3-18">
          <mxGeometry x="0.2589" y="-1" relative="1" as="geometry">
            <mxPoint as="offset" />
          </mxGeometry>
        </mxCell>
        <mxCell id="DgC-zNluo4wiE4wLOiC3-19" style="rounded=0;orthogonalLoop=1;jettySize=auto;html=1;entryX=0.878;entryY=0.566;entryDx=0;entryDy=0;entryPerimeter=0;dashed=1;" edge="1" parent="1" source="fBAG_2Qvh-3vgz0H6QJY-1" target="DgC-zNluo4wiE4wLOiC3-3">
          <mxGeometry relative="1" as="geometry">
            <mxPoint x="290" y="420" as="targetPoint" />
          </mxGeometry>
        </mxCell>
        <mxCell id="DgC-zNluo4wiE4wLOiC3-47" value="Publicador" style="edgeLabel;html=1;align=center;verticalAlign=middle;resizable=0;points=[];" vertex="1" connectable="0" parent="DgC-zNluo4wiE4wLOiC3-19">
          <mxGeometry x="0.2494" y="1" relative="1" as="geometry">
            <mxPoint x="-65" y="24" as="offset" />
          </mxGeometry>
        </mxCell>
        <mxCell id="DgC-zNluo4wiE4wLOiC3-22" style="rounded=0;orthogonalLoop=1;jettySize=auto;html=1;dashed=1;entryX=0.683;entryY=0.863;entryDx=0;entryDy=0;entryPerimeter=0;" edge="1" parent="1" source="DgC-zNluo4wiE4wLOiC3-2" target="DgC-zNluo4wiE4wLOiC3-3">
          <mxGeometry relative="1" as="geometry">
            <mxPoint x="270" y="440" as="targetPoint" />
          </mxGeometry>
        </mxCell>
        <mxCell id="DgC-zNluo4wiE4wLOiC3-48" value="Subscriptor" style="edgeLabel;html=1;align=center;verticalAlign=middle;resizable=0;points=[];" vertex="1" connectable="0" parent="DgC-zNluo4wiE4wLOiC3-22">
          <mxGeometry x="0.0965" relative="1" as="geometry">
            <mxPoint as="offset" />
          </mxGeometry>
        </mxCell>
        <mxCell id="DgC-zNluo4wiE4wLOiC3-23" style="rounded=0;orthogonalLoop=1;jettySize=auto;html=1;entryX=0.6;entryY=0.095;entryDx=0;entryDy=0;entryPerimeter=0;dashed=1;" edge="1" parent="1" source="DgC-zNluo4wiE4wLOiC3-2" target="DgC-zNluo4wiE4wLOiC3-4">
          <mxGeometry relative="1" as="geometry" />
        </mxCell>
        <mxCell id="DgC-zNluo4wiE4wLOiC3-25" value="&lt;span style=&quot;background-color: transparent; color: light-dark(rgb(0, 0, 0), rgb(255, 255, 255));&quot;&gt;Tópico&lt;br&gt;SaveTransaction&lt;/span&gt;" style="points=[];aspect=fixed;html=1;align=center;shadow=0;dashed=0;fillColor=#FF6A00;strokeColor=none;shape=mxgraph.alibaba_cloud.kafka;labelPosition=center;verticalLabelPosition=bottom;verticalAlign=top;" vertex="1" parent="1">
          <mxGeometry x="160" y="550" width="41" height="30.37" as="geometry" />
        </mxCell>
        <mxCell id="DgC-zNluo4wiE4wLOiC3-27" style="rounded=0;orthogonalLoop=1;jettySize=auto;html=1;entryX=0.463;entryY=0.165;entryDx=0;entryDy=0;entryPerimeter=0;dashed=1;" edge="1" parent="1" source="seuOisZTkPId3t4UCby2-11" target="DgC-zNluo4wiE4wLOiC3-25">
          <mxGeometry relative="1" as="geometry" />
        </mxCell>
        <mxCell id="DgC-zNluo4wiE4wLOiC3-39" value="Subscriptor" style="edgeLabel;html=1;align=center;verticalAlign=middle;resizable=0;points=[];" vertex="1" connectable="0" parent="DgC-zNluo4wiE4wLOiC3-27">
          <mxGeometry x="0.3191" y="-2" relative="1" as="geometry">
            <mxPoint x="-33" y="16" as="offset" />
          </mxGeometry>
        </mxCell>
        <mxCell id="DgC-zNluo4wiE4wLOiC3-28" value="ms-virtualcoint" style="sketch=0;outlineConnect=0;fontColor=#232F3E;gradientColor=none;fillColor=#ED7100;strokeColor=none;dashed=0;verticalLabelPosition=bottom;verticalAlign=top;align=center;html=1;fontSize=12;fontStyle=0;aspect=fixed;pointerEvents=1;shape=mxgraph.aws4.ec2_aws_microservice_extractor_for_net;" vertex="1" parent="1">
          <mxGeometry x="710" y="470" width="48" height="48" as="geometry" />
        </mxCell>
        <mxCell id="DgC-zNluo4wiE4wLOiC3-31" value="&lt;span style=&quot;background-color: transparent; color: light-dark(rgb(0, 0, 0), rgb(255, 255, 255));&quot;&gt;Tópico&lt;br&gt;requiredPayment&lt;/span&gt;" style="points=[];aspect=fixed;html=1;align=center;shadow=0;dashed=0;fillColor=#FF6A00;strokeColor=none;shape=mxgraph.alibaba_cloud.kafka;labelPosition=center;verticalLabelPosition=bottom;verticalAlign=top;" vertex="1" parent="1">
          <mxGeometry x="250" y="569" width="41" height="30.37" as="geometry" />
        </mxCell>
        <mxCell id="DgC-zNluo4wiE4wLOiC3-32" style="rounded=0;orthogonalLoop=1;jettySize=auto;html=1;entryX=0.927;entryY=0.613;entryDx=0;entryDy=0;entryPerimeter=0;dashed=1;" edge="1" parent="1" source="DgC-zNluo4wiE4wLOiC3-2" target="DgC-zNluo4wiE4wLOiC3-31">
          <mxGeometry relative="1" as="geometry" />
        </mxCell>
        <mxCell id="DgC-zNluo4wiE4wLOiC3-36" value="Subscriptor" style="edgeLabel;html=1;align=center;verticalAlign=middle;resizable=0;points=[];" vertex="1" connectable="0" parent="DgC-zNluo4wiE4wLOiC3-32">
          <mxGeometry x="0.1388" y="-2" relative="1" as="geometry">
            <mxPoint x="-37" y="16" as="offset" />
          </mxGeometry>
        </mxCell>
        <mxCell id="DgC-zNluo4wiE4wLOiC3-33" style="rounded=0;orthogonalLoop=1;jettySize=auto;html=1;entryX=0.512;entryY=0.317;entryDx=0;entryDy=0;entryPerimeter=0;dashed=1;" edge="1" parent="1" source="seuOisZTkPId3t4UCby2-11" target="DgC-zNluo4wiE4wLOiC3-31">
          <mxGeometry relative="1" as="geometry" />
        </mxCell>
        <mxCell id="DgC-zNluo4wiE4wLOiC3-37" value="Subscriptor" style="edgeLabel;html=1;align=center;verticalAlign=middle;resizable=0;points=[];" vertex="1" connectable="0" parent="DgC-zNluo4wiE4wLOiC3-33">
          <mxGeometry x="-0.6003" y="-4" relative="1" as="geometry">
            <mxPoint x="-157" y="74" as="offset" />
          </mxGeometry>
        </mxCell>
        <mxCell id="DgC-zNluo4wiE4wLOiC3-34" style="edgeStyle=orthogonalEdgeStyle;rounded=0;orthogonalLoop=1;jettySize=auto;html=1;dashed=1;" edge="1" parent="1">
          <mxGeometry relative="1" as="geometry">
            <mxPoint x="730" y="520" as="sourcePoint" />
            <mxPoint x="290" y="590" as="targetPoint" />
            <Array as="points">
              <mxPoint x="730" y="598" />
            </Array>
          </mxGeometry>
        </mxCell>
        <mxCell id="DgC-zNluo4wiE4wLOiC3-35" value="Publicador" style="edgeLabel;html=1;align=center;verticalAlign=middle;resizable=0;points=[];" vertex="1" connectable="0" parent="DgC-zNluo4wiE4wLOiC3-34">
          <mxGeometry x="0.1091" y="2" relative="1" as="geometry">
            <mxPoint x="-56" y="-1" as="offset" />
          </mxGeometry>
        </mxCell>
        <mxCell id="DgC-zNluo4wiE4wLOiC3-50" value="&lt;span style=&quot;background-color: transparent; color: light-dark(rgb(0, 0, 0), rgb(255, 255, 255));&quot;&gt;Tópico&lt;br&gt;updateBotCoins&lt;/span&gt;" style="points=[];aspect=fixed;html=1;align=center;shadow=0;dashed=0;fillColor=#FF6A00;strokeColor=none;shape=mxgraph.alibaba_cloud.kafka;labelPosition=center;verticalLabelPosition=bottom;verticalAlign=top;" vertex="1" parent="1">
          <mxGeometry x="343" y="599.37" width="41" height="30.37" as="geometry" />
        </mxCell>
        <mxCell id="DgC-zNluo4wiE4wLOiC3-51" style="rounded=0;orthogonalLoop=1;jettySize=auto;html=1;entryX=0.585;entryY=0.12;entryDx=0;entryDy=0;entryPerimeter=0;dashed=1;" edge="1" parent="1" source="seuOisZTkPId3t4UCby2-11" target="DgC-zNluo4wiE4wLOiC3-50">
          <mxGeometry relative="1" as="geometry" />
        </mxCell>
        <mxCell id="DgC-zNluo4wiE4wLOiC3-52" value="Publicador" style="edgeLabel;html=1;align=center;verticalAlign=middle;resizable=0;points=[];" vertex="1" connectable="0" parent="DgC-zNluo4wiE4wLOiC3-51">
          <mxGeometry x="0.4767" y="2" relative="1" as="geometry">
            <mxPoint as="offset" />
          </mxGeometry>
        </mxCell>
        <mxCell id="DgC-zNluo4wiE4wLOiC3-53" style="rounded=0;orthogonalLoop=1;jettySize=auto;html=1;entryX=0.976;entryY=0.778;entryDx=0;entryDy=0;entryPerimeter=0;dashed=1;" edge="1" parent="1" source="DgC-zNluo4wiE4wLOiC3-28" target="DgC-zNluo4wiE4wLOiC3-50">
          <mxGeometry relative="1" as="geometry">
            <Array as="points">
              <mxPoint x="580" y="623" />
            </Array>
          </mxGeometry>
        </mxCell>
        <mxCell id="DgC-zNluo4wiE4wLOiC3-54" value="Subscriptor" style="edgeLabel;html=1;align=center;verticalAlign=middle;resizable=0;points=[];" vertex="1" connectable="0" parent="DgC-zNluo4wiE4wLOiC3-53">
          <mxGeometry x="0.2908" y="1" relative="1" as="geometry">
            <mxPoint x="-53" as="offset" />
          </mxGeometry>
        </mxCell>
      </root>
    </mxGraphModel>
  </diagram>
</mxfile>
